<?xml version="1.0" standalone="no"?>
<!DOCTYPE svg PUBLIC "-//W3C//DTD SVG 20010904//EN"
 "http://www.w3.org/TR/2001/REC-SVG-20010904/DTD/svg10.dtd">
<svg version="1.0" xmlns="http://www.w3.org/2000/svg"
 width="512.000000pt" height="512.000000pt" viewBox="0 0 512.000000 512.000000"
 preserveAspectRatio="xMidYMid meet">
<metadata>
Created by potrace 1.14, written by Peter Selinger 2001-2017
</metadata>
<g transform="translate(0.000000,512.000000) scale(0.100000,-0.100000)"
fill="#000000" stroke="none">
<path d="M5021 4155 c-3 -46 -177 -925 -182 -925 -6 0 -436 404 -699 656 l-45
44 -480 -125 c-1350 -348 -1868 -485 -1882 -497 -23 -18 -723 -946 -723 -957
0 -13 -8 -11 365 -91 182 -39 339 -73 350 -76 11 -3 0 7 -25 24 -58 38 -83 66
-113 127 -40 79 -50 156 -33 254 35 197 145 335 316 392 86 28 244 23 333 -11
l58 -22 -7 -61 c-4 -34 -9 -65 -11 -69 -2 -5 -24 -8 -49 -8 -42 0 -44 1 -44
29 0 34 -11 39 -89 48 -208 21 -353 -125 -354 -358 -1 -149 55 -231 178 -264
74 -19 86 -19 186 1 78 16 82 16 107 -3 14 -10 27 -24 30 -31 6 -20 -85 -57
-217 -89 -29 -7 49 -26 468 -117 276 -59 504 -106 505 -104 2 1 35 62 74 133
l71 131 -81 257 -82 257 -34 0 -33 0 3 48 3 47 89 0 89 0 68 -214 c38 -117 70
-215 71 -217 2 -1 49 82 105 185 57 103 113 197 126 209 34 32 137 58 137 34
0 -5 -112 -208 -249 -453 -137 -244 -249 -445 -248 -445 8 -7 1469 -316 1473
-311 13 12 566 2195 566 2232 0 35 -89 367 -91 340z m-184 -977 c-3 -7 -5 -2
-5 12 0 14 2 19 5 13 2 -7 2 -19 0 -25z m-10 -50 c-3 -7 -5 -2 -5 12 0 14 2
19 5 13 2 -7 2 -19 0 -25z m-10 -50 c-3 -8 -6 -5 -6 6 -1 11 2 17 5 13 3 -3 4
-12 1 -19z m-2337 -118 c27 -27 25 -66 -5 -95 -29 -30 -68 -32 -95 -5 -27 27
-25 66 5 95 29 30 68 32 95 5z m266 -90 l-7 -70 49 0 c27 0 51 -2 53 -4 2 -3
3 -25 1 -50 l-4 -46 -53 0 -52 0 -6 -52 c-4 -29 -11 -120 -18 -203 -14 -182
-9 -202 52 -211 43 -7 79 -36 79 -65 0 -35 -136 -39 -200 -6 -57 29 -80 73
-80 152 0 79 38 533 48 565 7 23 16 27 141 59 2 1 0 -30 -3 -69z m1074 -17 c0
-21 -7 -103 -15 -183 -19 -196 -19 -323 0 -361 36 -69 155 -93 235 -48 73 41
90 100 115 387 8 95 20 182 25 193 22 40 110 66 110 32 -1 -54 -41 -446 -50
-487 -22 -100 -84 -181 -169 -219 -37 -17 -66 -22 -146 -22 -88 0 -107 3 -157
27 -116 54 -137 130 -114 400 21 239 24 218 -24 218 l-40 0 0 43 c0 24 3 47 7
50 3 4 55 7 115 7 l108 0 0 -37z m-1337 -60 c6 -11 -50 -644 -58 -651 -3 -3
-25 0 -47 8 -29 10 -48 26 -61 48 -19 33 -19 38 -3 235 9 111 19 217 22 235 5
31 4 32 -31 32 -35 0 -35 0 -35 43 0 24 3 47 7 50 9 10 201 9 206 0z"/>
<path d="M143 1717 c-57 -6 -103 -15 -103 -20 0 -6 26 -8 65 -5 59 5 65 4 65
-13 0 -17 -8 -19 -80 -19 -47 0 -80 -4 -80 -10 0 -6 29 -10 68 -10 l67 -1 -30
-24 c-16 -14 -49 -35 -73 -46 -23 -11 -40 -25 -36 -30 6 -11 76 24 127 63 l37
30 0 -41 0 -41 -45 0 -45 0 0 -80 0 -80 105 0 105 0 0 80 0 80 -50 0 -50 0 0
41 0 41 38 -30 c40 -32 95 -62 112 -62 22 0 8 18 -28 34 -21 10 -52 28 -68 41
l-29 24 68 1 c38 0 67 4 67 10 0 6 -33 10 -80 10 -72 0 -80 2 -80 19 0 16 10
20 60 26 33 4 60 11 60 16 0 10 -24 10 -167 -4z m127 -212 c0 -25 -1 -25 -85
-25 -84 0 -85 0 -85 25 0 25 1 25 85 25 84 0 85 0 85 -25z m-2 -67 c-3 -21 -9
-23 -85 -26 -83 -3 -83 -3 -83 23 0 25 1 25 86 25 83 0 85 -1 82 -22z"/>
<path d="M620 1701 c0 -25 -5 -30 -27 -34 l-28 -4 28 -2 c23 -1 27 -5 27 -31
0 -28 -2 -30 -42 -32 l-43 -1 38 -4 c45 -5 46 -17 5 -60 -36 -38 -30 -58 7
-23 l25 23 0 -59 c0 -33 5 -65 12 -72 12 -12 124 -17 152 -6 9 4 16 18 16 34
0 38 -18 48 -22 13 -3 -27 -4 -28 -68 -28 -63 0 -65 1 -68 28 -3 27 -2 27 52
27 l56 0 0 35 0 36 29 -22 c16 -12 34 -18 40 -14 7 4 -3 18 -29 36 -22 16 -40
33 -40 38 0 6 17 12 38 14 l37 4 -42 1 c-40 2 -43 4 -43 31 0 26 4 30 33 34
l32 4 -32 1 c-30 2 -33 5 -33 32 0 38 -18 40 -22 3 -3 -24 -8 -28 -33 -28 -25
0 -30 4 -33 28 -4 36 -22 35 -22 -2z m85 -71 c0 -21 -5 -25 -30 -25 -25 0 -30
4 -33 28 -3 27 -1 28 30 25 28 -2 33 -7 33 -28z m15 -60 c10 -19 8 -20 -45
-20 -53 0 -55 1 -43 20 9 13 24 20 45 20 22 0 36 -6 43 -20z m0 -60 c0 -17 -7
-20 -45 -20 -38 0 -45 3 -45 20 0 17 7 20 45 20 38 0 45 -3 45 -20z"/>
<path d="M1160 1695 l0 -35 -55 0 -55 0 0 -87 c0 -75 -4 -94 -25 -132 -25 -44
-27 -60 -5 -46 21 13 50 89 50 133 0 40 1 42 30 42 26 0 30 -4 30 -27 0 -48
-11 -73 -31 -73 -11 0 -19 -5 -19 -11 0 -6 12 -9 27 -7 31 3 40 26 42 96 l1
42 -40 0 c-36 0 -40 2 -40 26 0 24 2 25 48 22 l47 -3 6 -55 c4 -30 10 -67 13
-81 6 -21 1 -31 -33 -62 -22 -20 -36 -39 -31 -42 5 -3 24 7 41 23 l33 29 21
-31 c27 -40 52 -45 61 -12 3 14 3 34 -2 43 -6 15 -8 13 -12 -9 -5 -37 -20 -35
-36 3 -12 27 -10 37 10 87 26 64 30 86 12 80 -6 -2 -18 -26 -26 -54 -14 -45
-16 -47 -23 -24 -4 14 -7 44 -8 68 l-1 42 45 0 c60 0 58 18 -2 22 -46 3 -48 4
-51 36 -4 43 -22 41 -22 -3z"/>
<path d="M1217 1724 c-7 -8 14 -54 25 -54 4 0 8 6 8 13 -1 17 -26 48 -33 41z"/>
<path d="M1540 1723 c0 -3 7 -15 17 -25 15 -17 13 -18 -75 -18 -55 0 -92 -4
-92 -10 0 -6 33 -10 80 -10 l80 0 0 -35 0 -35 -60 0 -60 0 0 -85 c0 -50 4 -85
10 -85 6 0 10 32 10 75 l0 75 50 0 50 0 0 -95 c0 -78 3 -95 15 -95 12 0 15 17
15 95 l0 95 50 0 50 0 0 -66 0 -66 -30 6 c-37 7 -40 -11 -3 -20 46 -12 58 5
61 90 l3 76 -66 0 -65 0 0 35 0 35 80 0 c47 0 80 4 80 10 0 6 -34 10 -82 10
-45 0 -78 3 -75 7 4 3 0 15 -10 25 -16 18 -33 24 -33 11z"/>
<path d="M2000 1703 c0 -68 -6 -73 -81 -73 -89 0 -90 -18 -1 -22 65 -3 67 -4
63 -28 -8 -56 -83 -155 -132 -172 -9 -4 -11 -9 -4 -16 7 -8 24 -1 56 22 42 31
74 80 107 166 9 24 10 24 17 5 24 -65 55 -116 98 -159 36 -36 51 -46 60 -37 8
8 5 16 -13 28 -44 30 -82 77 -106 127 -13 27 -21 53 -18 58 3 4 34 8 70 8 36
0 64 4 64 10 0 6 -34 10 -82 10 l-83 0 3 50 c3 32 0 50 -7 50 -6 0 -11 -12
-11 -27z"/>
<path d="M2368 1717 l-38 -11 0 -63 c0 -35 -4 -63 -10 -63 -5 0 -10 -13 -10
-30 0 -16 5 -30 10 -30 6 0 10 9 10 20 0 19 7 20 140 20 133 0 140 -1 140 -20
0 -11 5 -20 10 -20 6 0 10 11 10 25 0 14 -4 25 -10 25 -6 0 -10 30 -10 70 l0
70 -44 0 c-27 0 -46 5 -49 13 -3 9 -10 7 -25 -6 -13 -12 -22 -15 -27 -8 -3 6
-14 11 -23 11 -15 -1 -14 -3 3 -16 17 -13 18 -16 5 -24 -20 -12 -21 -47 -2
-55 26 -10 -31 -57 -65 -53 -40 4 -37 32 5 36 43 4 41 22 -3 22 -19 0 -35 5
-35 10 0 6 16 10 35 10 19 0 35 5 35 10 0 6 -16 10 -35 10 -44 0 -45 13 -3 25
17 6 33 16 36 23 4 14 2 14 -50 -1z m219 -33 c6 -17 -65 -23 -78 -7 -6 6 -8
16 -5 21 7 12 78 0 83 -14z m-94 -21 c4 -3 2 -12 -4 -19 -8 -10 -16 -11 -31
-3 -17 9 -18 13 -7 20 17 10 33 11 42 2z m92 -28 c0 -6 -15 -11 -32 -13 -45
-4 -42 -22 3 -22 47 0 41 -24 -7 -28 -27 -2 -36 2 -44 20 -6 14 -7 31 -1 44 8
17 15 19 45 14 20 -3 36 -10 36 -15z m-90 -45 c4 -6 -7 -10 -27 -10 -25 0 -29
3 -18 10 19 13 37 13 45 0z"/>
<path d="M978 1673 c-3 -41 -6 -48 -28 -54 l-25 -6 25 -4 c23 -4 25 -9 28 -61
3 -54 2 -58 -23 -64 -26 -6 -35 -24 -12 -24 17 1 97 38 97 46 0 3 -9 4 -20 1
-18 -5 -20 0 -20 48 0 48 3 54 23 58 l22 4 -22 2 c-21 1 -23 6 -23 51 0 63
-18 66 -22 3z"/>
<path d="M505 1680 c15 -16 32 -27 37 -24 12 8 -31 54 -51 54 -10 0 -6 -9 14
-30z"/>
<path d="M470 1622 c0 -4 14 -21 30 -37 21 -20 30 -24 30 -13 0 14 -20 37 -47
52 -7 4 -13 3 -13 -2z"/>
<path d="M525 1525 c-4 -11 -18 -44 -31 -74 -27 -60 -27 -61 -15 -61 13 0 63
118 58 138 -3 15 -5 15 -12 -3z"/>
<path d="M2360 1520 c0 -6 35 -11 83 -11 75 -1 79 -2 45 -12 -21 -6 -38 -14
-38 -19 0 -4 -34 -8 -75 -8 -43 0 -75 -4 -75 -10 0 -6 33 -10 79 -10 70 0 79
-2 84 -20 6 -24 -6 -34 -33 -25 -11 4 -20 2 -20 -4 0 -17 48 -25 65 -11 8 7
15 23 15 36 0 23 3 24 75 24 43 0 75 4 75 10 0 6 -35 10 -82 11 l-83 0 40 15
c22 8 47 21 55 29 13 13 1 15 -98 15 -68 0 -112 -4 -112 -10z"/>
<path d="M2192 1248 c-6 -7 -13 -30 -17 -50 -4 -22 -14 -39 -24 -41 -14 -4
-14 -5 2 -6 14 -1 17 -11 17 -66 0 -51 3 -65 15 -65 12 0 15 14 15 64 0 53 3
65 18 69 16 4 16 5 0 6 -27 2 -25 71 2 78 11 3 20 9 20 14 0 14 -36 11 -48 -3z"/>
<path d="M48 1220 c-86 -67 -42 -200 66 -200 23 0 51 6 62 14 24 18 13 31 -14
17 -90 -48 -172 60 -106 138 27 33 78 43 101 20 6 -6 17 -8 24 -4 21 13 -20
35 -67 35 -26 0 -51 -7 -66 -20z"/>
<path d="M225 1230 c-3 -6 1 -13 10 -16 19 -8 30 0 20 15 -8 14 -22 14 -30 1z"/>
<path d="M620 1159 c0 -112 16 -139 83 -139 63 0 77 24 77 130 0 53 -4 90 -10
90 -6 0 -10 -33 -10 -78 0 -91 -15 -122 -60 -122 -45 0 -60 31 -60 122 0 45
-4 78 -10 78 -6 0 -10 -34 -10 -81z"/>
<path d="M975 1231 c-7 -12 12 -24 25 -16 11 7 4 25 -10 25 -5 0 -11 -4 -15
-9z"/>
<path d="M1590 1225 c0 -8 7 -15 15 -15 8 0 15 7 15 15 0 8 -7 15 -15 15 -8 0
-15 -7 -15 -15z"/>
<path d="M2330 1130 c0 -91 3 -110 15 -110 11 0 15 12 15 50 l0 50 60 0 60 0
0 -50 c0 -27 5 -50 10 -50 6 0 10 43 10 110 0 67 -4 110 -10 110 -5 0 -10 -20
-10 -45 l0 -45 -60 0 -60 0 0 45 c0 33 -4 45 -15 45 -12 0 -15 -19 -15 -110z"/>
<path d="M3140 1130 c0 -91 3 -110 15 -110 12 0 15 13 15 58 l1 57 52 -58 c30
-33 60 -57 72 -57 15 0 6 13 -39 59 l-58 58 54 51 c66 64 42 69 -30 6 l-52
-46 0 46 c0 34 -4 46 -15 46 -12 0 -15 -19 -15 -110z"/>
<path d="M310 1190 c0 -11 -7 -23 -15 -26 -14 -6 -14 -8 -1 -18 10 -7 16 -32
18 -66 3 -52 5 -55 31 -58 31 -4 37 13 7 21 -17 4 -20 14 -20 56 0 46 2 51 23
52 l22 0 -22 9 c-13 6 -23 18 -23 30 0 11 -4 20 -10 20 -5 0 -10 -9 -10 -20z"/>
<path d="M1680 1190 c0 -10 -8 -24 -17 -29 -17 -10 -17 -10 -1 -11 14 0 18
-12 20 -62 3 -66 16 -80 56 -62 14 6 13 8 -8 13 -22 6 -25 13 -28 55 -3 42 -1
48 19 53 l23 6 -22 8 c-13 5 -22 17 -22 29 0 11 -4 20 -10 20 -5 0 -10 -9 -10
-20z"/>
<path d="M400 1167 c0 -2 13 -37 30 -76 32 -79 29 -121 -10 -121 -11 0 -20 -5
-20 -11 0 -6 12 -9 27 -7 25 3 32 13 65 93 37 88 47 132 29 121 -5 -3 -17 -28
-27 -56 -10 -27 -20 -50 -24 -50 -3 0 -14 23 -25 52 -11 28 -26 53 -33 56 -6
2 -12 2 -12 -1z"/>
<path d="M861 1161 c-8 -5 -20 -7 -28 -4 -10 4 -13 -11 -13 -66 0 -41 4 -71
10 -71 6 0 10 22 10 49 0 32 6 55 16 65 36 37 64 10 64 -61 0 -29 5 -53 10
-53 17 0 12 116 -6 134 -17 18 -42 20 -63 7z"/>
<path d="M1211 1153 c-53 -44 -24 -133 43 -133 36 0 76 23 58 34 -6 3 -13 2
-17 -4 -9 -14 -58 -13 -73 2 -26 26 -13 38 43 38 52 0 55 1 55 24 0 48 -68 72
-109 39z m74 -16 c26 -20 10 -37 -36 -37 -42 0 -54 20 -21 39 23 14 35 13 57
-2z"/>
<path d="M1401 1161 c-8 -5 -20 -7 -28 -4 -10 4 -13 -11 -13 -66 0 -41 4 -71
10 -71 6 0 10 22 10 49 0 51 17 81 46 81 8 0 14 5 14 10 0 12 -20 13 -39 1z"/>
<path d="M1478 1159 c-10 -5 -18 -20 -18 -33 0 -18 10 -27 41 -39 50 -20 48
-43 -5 -41 -40 1 -46 -19 -7 -24 46 -7 71 6 71 37 0 23 -6 31 -40 44 -22 8
-40 20 -40 27 0 17 26 23 49 11 12 -7 22 -7 26 -2 6 11 -25 31 -47 31 -7 0
-21 -5 -30 -11z"/>
<path d="M1770 1163 c0 -5 11 -38 26 -72 29 -73 28 -102 -3 -116 -32 -13 -29
-27 4 -23 25 3 31 13 65 98 39 99 44 120 29 120 -4 0 -16 -21 -26 -47 -10 -27
-21 -52 -25 -56 -4 -4 -16 16 -27 44 -17 47 -43 77 -43 52z"/>
<path d="M2006 1149 c-50 -40 -23 -129 40 -129 60 0 95 50 73 103 -20 47 -71
59 -113 26z m82 -15 c40 -28 17 -94 -34 -94 -50 0 -70 54 -34 90 24 24 38 25
68 4z"/>
<path d="M2572 1163 c-21 -8 -43 -61 -36 -88 21 -83 144 -67 144 19 0 53 -57
90 -108 69z m78 -33 c24 -24 25 -47 3 -72 -18 -20 -63 -24 -81 -6 -20 20 -14
65 10 82 30 21 44 20 68 -4z"/>
<path d="M2761 1161 c-8 -5 -20 -7 -28 -4 -10 4 -13 -11 -13 -66 0 -41 4 -71
10 -71 6 0 10 20 10 44 0 56 29 97 57 80 13 -8 19 -26 21 -68 4 -77 22 -71 22
9 0 53 -3 66 -19 75 -24 12 -41 13 -60 1z"/>
<path d="M2903 1150 c-30 -27 -31 -82 -3 -110 22 -22 69 -27 88 -8 19 19 25 2
10 -29 -15 -31 -53 -42 -87 -24 -12 7 -22 7 -26 2 -13 -23 82 -43 111 -23 24
15 34 54 34 125 0 71 -1 75 -22 75 -13 1 -36 4 -53 7 -23 5 -36 1 -52 -15z
m87 -20 c24 -24 25 -38 4 -68 -18 -26 -50 -28 -76 -5 -22 20 -23 51 -1 75 21
24 48 23 73 -2z"/>
<path d="M3335 1145 c-30 -30 -32 -64 -4 -99 41 -52 129 -20 129 48 0 34 -41
76 -75 76 -14 0 -37 -11 -50 -25z m81 -3 c43 -28 30 -94 -19 -100 -36 -4 -57
13 -57 46 0 44 44 76 76 54z"/>
<path d="M3541 1161 c-8 -5 -20 -7 -28 -4 -10 4 -13 -11 -13 -66 0 -41 4 -71
10 -71 6 0 10 25 10 55 0 49 3 57 25 67 38 17 55 -4 55 -68 0 -30 5 -54 10
-54 17 0 12 116 -6 134 -17 18 -42 20 -63 7z"/>
<path d="M3680 1152 c-33 -27 -34 -87 -1 -113 26 -22 71 -25 89 -7 9 9 12 6
12 -13 0 -14 -5 -30 -12 -37 -15 -15 -74 -16 -83 -2 -4 6 -11 8 -16 4 -21 -12
14 -34 56 -34 64 0 75 19 75 123 0 75 -2 86 -17 86 -10 0 -32 3 -48 7 -22 4
-37 0 -55 -14z m82 -19 c22 -20 23 -56 2 -77 -32 -32 -84 -11 -84 34 0 52 45
76 82 43z"/>
<path d="M230 1090 c0 -40 4 -70 10 -70 6 0 10 30 10 70 0 40 -4 70 -10 70 -6
0 -10 -30 -10 -70z"/>
<path d="M980 1090 c0 -40 4 -70 10 -70 6 0 10 30 10 70 0 40 -4 70 -10 70 -6
0 -10 -30 -10 -70z"/>
<path d="M1040 1155 c0 -21 55 -135 65 -135 10 0 65 114 65 135 0 15 -22 2
-29 -17 -5 -13 -15 -36 -21 -53 l-12 -30 -24 53 c-13 28 -28 52 -34 52 -5 0
-10 -2 -10 -5z"/>
<path d="M1590 1090 c0 -56 3 -70 15 -70 12 0 15 14 15 70 0 56 -3 70 -15 70
-12 0 -15 -14 -15 -70z"/>
</g>
</svg>
