<?xml version="1.0" standalone="no"?>
<!DOCTYPE svg PUBLIC "-//W3C//DTD SVG 20010904//EN"
 "http://www.w3.org/TR/2001/REC-SVG-20010904/DTD/svg10.dtd">
<svg version="1.0" xmlns="http://www.w3.org/2000/svg"
 width="800.000000pt" height="800.000000pt" viewBox="0 0 800.000000 800.000000"
 preserveAspectRatio="xMidYMid meet">
<metadata>
Created by potrace 1.14, written by Peter Selinger 2001-2017
</metadata>
<g transform="translate(0.000000,800.000000) scale(0.100000,-0.100000)"
fill="#000000" stroke="none">
<path d="M187 7703 c-4 -4 3 -1598 7 -1609 3 -7 46 -10 123 -9 65 0 124 -3
131 -8 6 -5 12 -6 12 -1 0 11 151 11 168 0 7 -4 12 -4 12 1 0 4 39 7 87 5 103
-2 80 -2 221 1 92 2 117 -1 130 -14 14 -13 1623 -2418 1657 -2477 6 -9 12 -19
15 -22 3 -3 39 -57 80 -120 41 -63 81 -121 88 -128 6 -7 13 -19 13 -25 5 -48
3 -1371 -2 -1379 -4 -6 -208 -9 -563 -9 -434 1 -556 -2 -557 -12 -6 -63 -2
-1720 4 -1724 10 -6 4414 -6 4424 0 5 3 8 394 8 869 l0 863 -559 2 c-307 1
-561 5 -564 8 -4 3 -7 314 -7 690 l0 685 47 71 c27 39 48 73 48 75 0 8 54 79
63 82 4 2 7 10 7 17 0 7 9 24 20 37 10 12 120 176 244 363 124 187 229 345
233 350 5 6 32 46 61 90 28 44 55 85 60 90 4 6 35 51 67 100 33 50 64 97 70
105 5 9 19 31 30 50 11 18 27 40 35 49 8 9 21 29 29 44 8 15 18 27 23 27 4 0
8 5 8 10 0 8 511 782 539 816 4 5 14 21 21 35 7 13 16 26 19 29 4 3 55 79 115
170 60 91 113 169 117 174 10 12 189 14 189 2 0 -5 5 -5 13 1 15 10 157 10
175 0 6 -5 12 -5 12 0 0 10 121 10 138 -1 7 -4 12 -3 12 1 0 5 30 7 68 5 37
-1 74 -3 82 -2 8 0 57 1 108 1 l92 2 0 96 c2 723 -1 1514 -4 1519 -3 6 -3243
9 -3267 3 -3 0 -6 -364 -5 -808 l1 -808 93 0 c50 0 92 -4 92 -8 0 -5 5 -5 12
-1 17 10 149 11 155 1 3 -4 11 -3 18 3 9 8 15 8 20 1 3 -6 -15 -43 -42 -83
-26 -40 -52 -81 -58 -90 -12 -21 -340 -526 -375 -578 -37 -56 -368 -570 -407
-632 -26 -43 -51 -78 -54 -78 -4 0 -30 37 -60 83 -29 45 -84 128 -121 185 -37
57 -68 105 -68 106 0 1 -42 66 -92 144 -51 78 -120 183 -153 234 -32 51 -97
152 -143 223 -47 72 -105 162 -130 200 -25 39 -67 103 -94 143 -26 41 -48 76
-48 79 0 3 -9 16 -20 30 -11 14 -20 28 -20 32 0 9 223 6 238 -3 6 -4 12 -4 12
1 0 4 28 8 63 8 l62 0 0 810 0 810 -1638 0 c-901 0 -1639 -1 -1640 -2z"/>
</g>
</svg>
