<?xml version="1.0" standalone="no"?>
<!DOCTYPE svg PUBLIC "-//W3C//DTD SVG 20010904//EN"
 "http://www.w3.org/TR/2001/REC-SVG-20010904/DTD/svg10.dtd">
<svg version="1.0" xmlns="http://www.w3.org/2000/svg"
 width="2048.000000pt" height="2048.000000pt" viewBox="0 0 2048.000000 2048.000000"
 preserveAspectRatio="xMidYMid meet">
<metadata>
Created by potrace 1.14, written by Peter Selinger 2001-2017
</metadata>
<g transform="translate(0.000000,2048.000000) scale(0.100000,-0.100000)"
fill="#000000" stroke="none">
<path d="M6916 16607 c-21 -17 -27 -29 -23 -41 8 -21 45 -16 85 10 23 15 23
16 6 35 -22 25 -33 24 -68 -4z"/>
<path d="M6692 16456 c-24 -15 -32 -27 -30 -45 2 -14 8 -26 14 -28 19 -6 64
37 64 62 0 33 -10 36 -48 11z"/>
<path d="M7277 16324 c-23 -13 -28 -21 -25 -47 3 -36 27 -46 63 -27 35 19 48
54 26 74 -21 19 -28 19 -64 0z"/>
<path d="M7077 16292 c-29 -12 -117 -104 -123 -129 -6 -22 16 -52 38 -53 26
-1 148 142 148 174 0 17 -30 21 -63 8z"/>
<path d="M4630 15891 c-14 -28 -13 -56 5 -71 24 -20 45 -4 45 34 0 44 -33 68
-50 37z"/>
<path d="M4415 15877 c-16 -26 -12 -52 10 -61 18 -6 58 38 53 61 -5 28 -44 28
-63 0z"/>
<path d="M7057 15827 c-8 -12 -25 -46 -37 -75 -25 -57 -22 -95 10 -112 17 -9
20 -7 26 17 3 16 12 48 19 73 25 82 29 120 12 120 -8 0 -21 -10 -30 -23z"/>
<path d="M4230 15833 c-44 -16 -67 -67 -35 -79 25 -10 110 38 113 64 3 19 -1
22 -30 21 -18 0 -40 -3 -48 -6z"/>
<path d="M8173 15728 c-35 -39 -56 -79 -47 -87 15 -15 53 7 74 41 36 60 16 93
-27 46z"/>
<path d="M4042 15530 c-27 -36 -25 -64 4 -68 27 -4 66 43 62 72 -5 34 -40 31
-66 -4z"/>
<path d="M12580 15375 c-8 -2 -51 -9 -95 -15 -44 -7 -102 -19 -130 -27 -76
-24 -208 -74 -223 -86 -7 -5 -52 -13 -100 -16 -93 -8 -143 -25 -288 -102 -393
-206 -661 -466 -832 -804 -81 -162 -162 -439 -162 -553 0 -25 -11 -66 -25 -98
-14 -30 -25 -58 -25 -63 0 -16 -43 -146 -51 -155 -12 -13 -11 -158 2 -281 6
-59 12 -447 13 -945 2 -577 7 -876 15 -943 12 -95 11 -101 -13 -165 -30 -83
-33 -100 -46 -293 -9 -123 -7 -254 5 -600 12 -310 14 -528 10 -722 l-8 -278
-23 -9 c-29 -11 -46 -43 -42 -78 2 -21 9 -28 33 -32 l30 -5 7 -191 c5 -150 12
-215 32 -300 23 -103 36 -231 56 -564 18 -302 62 -493 158 -685 210 -419 488
-718 837 -900 192 -100 271 -125 397 -125 99 0 112 -2 160 -28 84 -46 185 -66
324 -66 126 0 179 12 188 43 12 39 26 356 26 585 0 302 -21 483 -72 632 -10
27 -7 40 20 95 43 89 52 131 52 233 0 149 -22 188 -130 230 -114 44 -153 70
-178 119 -50 101 -54 133 -62 477 -9 357 -17 425 -69 554 -35 86 -33 93 21
111 24 8 32 16 30 30 -1 11 -5 70 -8 130 -6 122 -22 180 -59 215 l-24 23 22
31 c45 64 61 132 61 271 0 144 -10 184 -64 259 -31 42 -31 43 -16 87 8 24 17
60 21 79 12 60 34 118 61 161 l26 42 -7 226 c-6 222 -2 278 26 348 11 26 10
44 -4 110 -50 238 -61 520 -32 868 8 99 15 286 15 416 l0 235 -29 28 c-36 34
-45 72 -21 89 39 28 52 74 45 165 l-7 87 42 79 c72 136 173 276 200 276 5 0
26 -8 46 -17 l36 -18 24 28 c50 58 34 147 -36 197 -38 27 -38 39 1 76 39 36
69 98 69 144 0 19 -14 62 -30 94 -17 32 -30 64 -30 70 0 6 13 22 29 36 l30 25
3 565 3 565 -26 12 c-25 12 -179 26 -209 18z m-561 -431 c33 -42 26 -104 -12
-104 -27 0 -67 38 -67 65 0 26 27 65 45 65 7 0 23 -12 34 -26z m311 -470 c31
-26 38 -63 14 -71 -13 -4 -95 56 -101 74 -4 10 13 19 44 22 6 0 26 -11 43 -25z
m135 -304 c0 -31 -3 -35 -28 -38 -30 -4 -57 12 -57 34 0 22 32 45 59 42 23 -3
26 -8 26 -38z m-950 -144 c0 0 8 -16 18 -34 35 -68 14 -90 -73 -74 -44 8 -45
9 -43 42 2 44 44 84 76 74 12 -4 22 -7 22 -8z m195 -283 c12 -15 20 -38 18
-52 -2 -21 -9 -27 -35 -29 -47 -5 -83 23 -83 62 0 41 5 46 46 46 23 0 38 -8
54 -27z m-86 -592 c20 -22 19 -122 0 -128 -25 -8 -44 28 -44 81 0 70 12 82 44
47z m639 -364 c7 -29 5 -49 -7 -81 -22 -58 -46 -78 -87 -74 -33 3 -33 3 -31
53 7 111 29 147 87 142 25 -2 31 -7 38 -40z m-659 -180 c-6 -90 -9 -97 -28
-97 -28 0 -40 9 -58 45 -16 29 -15 30 23 74 21 24 39 51 39 61 0 9 3 20 7 24
17 17 23 -19 17 -107z m-589 -515 c-3 -8 -5 -17 -5 -21 0 -4 -11 -13 -24 -19
-20 -9 -29 -8 -47 7 -29 23 -20 47 23 66 29 12 34 12 46 -3 7 -9 10 -23 7 -30z
m1329 -797 c31 -13 36 -20 36 -49 0 -42 -40 -79 -79 -74 -22 3 -26 9 -29 40
-3 30 19 98 32 98 2 0 20 -7 40 -15z m-103 -985 c26 -14 27 -90 1 -113 -17
-16 -20 -16 -39 6 -32 35 -37 73 -13 97 23 23 25 23 51 10z m-831 -70 c0 -23
-65 -142 -83 -152 -18 -9 -19 -7 -12 44 9 69 39 118 71 118 13 0 24 -5 24 -10z
m-490 -366 c13 -34 2 -92 -20 -104 -25 -14 -60 0 -71 27 -13 35 -11 47 12 77
27 35 66 35 79 0z m418 -93 c37 -19 72 -65 72 -95 0 -23 -37 -39 -77 -31 -40
7 -116 78 -111 103 3 17 42 42 66 42 7 0 29 -9 50 -19z m692 -406 c32 -16 44
-45 38 -91 -2 -24 -8 -30 -32 -32 -16 -2 -41 -11 -55 -20 -29 -18 -110 -103
-111 -115 0 -17 -73 -78 -82 -69 -16 16 -21 83 -10 139 11 61 -4 93 -43 93
-26 0 -60 39 -46 53 5 5 44 10 87 11 47 1 106 11 144 23 82 26 76 26 110 8z
m239 -160 c46 -53 42 -125 -8 -125 -42 0 -105 20 -118 38 -18 23 -16 82 4 104
10 11 30 18 54 18 30 0 43 -7 68 -35z m-370 -339 c16 -19 3 -45 -24 -52 -34
-8 -65 4 -65 26 0 35 66 54 89 26z m-145 -118 c19 -55 -24 -79 -64 -36 -19 21
-27 68 -14 81 13 12 69 -20 78 -45z m171 -1174 c0 -46 -1 -49 -25 -46 -43 5
-51 35 -19 76 30 38 44 28 44 -30z m348 -603 c-2 -43 -15 -56 -41 -42 -18 10
-35 65 -23 77 3 3 19 4 36 2 27 -3 30 -6 28 -37z"/>
<path d="M13099 15371 c-35 -11 -72 -32 -81 -45 -12 -17 -10 -620 3 -1211 13
-572 11 -557 67 -568 67 -14 141 -109 197 -257 10 -25 31 -74 48 -110 29 -63
29 -67 17 -120 -29 -125 -18 -240 28 -292 20 -24 55 -23 77 2 38 42 108 80
147 80 51 0 50 -24 -2 -47 -49 -21 -116 -92 -185 -193 -77 -113 -151 -188
-169 -170 -18 18 -12 141 9 180 31 60 35 69 35 85 0 22 -34 18 -57 -7 -38 -42
-46 -92 -40 -226 7 -126 15 -152 47 -152 25 0 76 -44 95 -82 21 -43 28 -148
16 -233 -38 -260 -44 -339 -33 -406 13 -74 40 -129 77 -153 32 -21 64 -20 72
2 11 29 72 114 133 184 24 27 26 28 48 13 23 -17 30 -49 12 -60 -29 -18 -50
-86 -50 -162 0 -77 -1 -79 -30 -96 -16 -10 -35 -27 -40 -38 -9 -16 -7 -21 13
-30 35 -16 60 1 86 55 14 31 28 47 43 50 13 2 52 10 88 17 44 9 193 15 470 19
l405 5 3 37 c4 47 17 54 111 64 61 6 73 4 69 -7 -3 -8 -16 -16 -29 -19 -57
-12 -84 -51 -73 -106 6 -31 9 -34 43 -34 88 0 318 98 339 145 6 12 6 54 1 105
-4 47 -8 128 -8 181 -1 94 -16 280 -26 327 -8 32 -17 28 -44 -20 -39 -68 -138
-166 -276 -273 -21 -16 -61 -49 -89 -72 -46 -40 -76 -54 -76 -36 0 24 39 105
71 149 45 62 112 108 188 130 70 20 81 29 81 67 0 39 -30 82 -91 130 -54 41
-57 51 -30 87 14 18 22 21 33 13 7 -6 39 -24 70 -42 75 -41 149 -44 174 -6 15
23 15 27 -5 57 -11 18 -28 48 -38 65 -16 32 -16 34 3 55 49 56 58 80 57 165 0
81 -5 100 -50 201 -30 69 -29 78 10 91 19 7 40 23 47 37 19 34 -1 108 -53 199
-23 41 -40 84 -41 105 l-1 35 53 -3 c66 -3 70 6 47 106 -32 143 -35 161 -35
223 0 34 5 79 12 100 11 37 9 41 -19 77 -33 41 -48 82 -57 157 -4 28 -15 84
-26 125 -12 41 -25 91 -30 112 -13 48 -84 197 -133 278 -42 69 -162 227 -302
400 -77 94 -93 108 -153 136 -37 17 -109 57 -160 88 -51 31 -96 56 -99 56 -4
0 -14 6 -22 14 -25 22 -169 96 -241 123 -86 33 -229 63 -302 63 -33 0 -69 5
-81 12 -100 56 -291 92 -368 69z m354 -575 c17 -37 14 -46 -16 -46 -24 0 -46
27 -47 58 0 37 43 29 63 -12z m1081 -777 c5 -14 6 -42 2 -61 -5 -28 -14 -40
-42 -53 -29 -14 -38 -14 -51 -4 -24 20 -12 107 17 131 31 25 62 19 74 -13z
m-1274 -56 c7 -21 10 -54 8 -73 -4 -41 -26 -50 -63 -26 -19 13 -25 25 -25 54
0 64 9 82 41 82 24 0 30 -6 39 -37z m849 -37 c32 -34 24 -60 -18 -64 -38 -4
-51 9 -51 49 0 46 33 54 69 15z m301 -228 c26 -28 43 -93 36 -136 -6 -43 -34
-75 -55 -66 -9 4 -32 10 -51 13 l-35 6 0 76 c0 55 5 82 18 102 22 33 58 35 87
5z m-450 -532 c0 -3 -13 -24 -28 -48 -16 -24 -35 -65 -44 -93 -15 -48 -17 -50
-54 -53 -30 -3 -41 1 -56 20 -20 26 -23 79 -8 109 21 37 81 68 138 68 28 1 52
-1 52 -3z m831 -123 l21 -43 -21 -29 c-24 -34 -47 -32 -74 5 -24 32 -35 123
-16 134 21 14 67 -20 90 -67z m-751 -177 c0 -8 -11 -34 -25 -57 -13 -24 -32
-77 -42 -117 -14 -61 -15 -80 -5 -118 22 -82 21 -84 -56 -84 l-68 0 -17 35
c-9 20 -17 51 -17 70 0 27 6 37 35 55 41 25 65 58 88 120 28 76 54 110 82 110
15 0 25 -6 25 -14z m-232 -613 c4 -27 -31 -57 -57 -48 -25 8 -45 41 -37 61 15
40 87 31 94 -13z m-74 -209 c9 -8 16 -32 16 -53 0 -31 -5 -40 -25 -49 -60 -28
-91 -5 -80 58 9 56 55 79 89 44z m747 -104 c15 -8 19 -22 19 -60 0 -58 -24
-90 -68 -90 -38 0 -52 17 -52 63 0 29 7 46 29 68 32 32 42 34 72 19z m-585
-335 c58 -30 72 -100 25 -128 -36 -21 -45 -21 -65 -1 -11 10 -16 34 -16 73 0
76 6 82 56 56z"/>
<path d="M6745 15303 c-158 -22 -314 -58 -550 -129 -27 -8 -67 -19 -88 -25
-48 -12 -61 -20 -174 -101 -51 -38 -96 -68 -99 -68 -3 0 -23 -12 -43 -27 -20
-16 -45 -33 -56 -40 -11 -7 -64 -40 -118 -73 -54 -33 -101 -60 -105 -60 -22 0
-142 -150 -212 -265 -65 -107 -128 -183 -186 -229 -29 -22 -60 -54 -68 -71
-20 -40 -76 -165 -76 -170 0 -2 -14 -34 -31 -72 -72 -161 -86 -194 -109 -263
-51 -154 -61 -211 -62 -350 0 -162 -18 -248 -61 -303 -26 -34 -29 -43 -23 -85
3 -25 10 -60 16 -77 5 -16 16 -86 25 -155 46 -368 63 -465 102 -580 29 -87 54
-137 92 -190 15 -21 33 -64 40 -96 24 -110 82 -260 135 -349 114 -192 308
-392 594 -612 56 -43 75 -53 85 -44 18 14 27 4 27 -30 0 -36 36 -78 107 -123
55 -35 93 -85 93 -121 0 -8 12 -18 28 -21 28 -8 98 -37 187 -80 69 -33 171
-97 394 -247 104 -70 235 -151 290 -180 56 -28 101 -57 101 -64 0 -16 39 -93
58 -115 8 -10 22 -18 30 -18 13 0 14 24 7 175 -9 228 -38 348 -95 400 -25 23
-25 35 1 79 36 62 49 150 56 386 5 186 9 231 24 266 10 23 26 47 34 54 8 7 15
19 15 27 0 23 -48 118 -69 137 -28 25 -73 13 -102 -27 -49 -66 -96 -107 -123
-107 -24 0 -26 3 -26 45 0 73 25 112 95 144 33 16 85 32 115 36 86 11 172 35
203 57 58 41 62 23 72 -302 9 -316 25 -613 36 -664 6 -32 6 -53 0 -60 -6 -7
-18 -46 -27 -88 -15 -70 -15 -85 0 -210 20 -167 21 -396 3 -441 -34 -82 -34
-83 41 -120 220 -109 375 -277 460 -497 31 -82 52 -146 52 -164 0 -24 38 -86
53 -86 7 0 24 -10 39 -23 26 -21 27 -25 17 -62 -15 -59 -40 -165 -45 -200 -5
-32 -26 -126 -51 -235 -46 -198 -134 -348 -238 -403 -52 -28 -106 -47 -134
-47 -19 0 -37 -12 -63 -44 -21 -24 -57 -53 -81 -65 -86 -42 -86 -41 -69 -251
13 -155 8 -241 -15 -288 -16 -31 -15 -38 3 -105 17 -66 19 -103 16 -452 -2
-341 0 -390 17 -479 24 -122 30 -130 96 -116 28 6 78 14 112 19 34 5 84 14
110 19 26 6 84 18 128 27 44 9 103 23 131 31 28 8 57 14 65 14 18 0 247 74
298 96 194 85 263 129 407 265 70 66 155 141 188 166 59 45 125 111 126 125 0
4 6 13 13 20 7 7 26 34 41 60 15 26 73 99 129 163 111 127 204 248 229 298 56
111 92 238 116 417 6 50 10 57 42 72 49 25 60 43 49 81 -15 51 -11 118 12 203
48 179 51 203 44 344 -4 74 -10 263 -15 420 -9 326 -14 373 -67 600 -34 148
-116 373 -178 490 -7 14 -24 46 -38 73 -14 26 -39 64 -55 85 -16 20 -69 102
-117 182 -149 246 -238 346 -362 409 -49 24 -78 53 -99 98 -20 42 -153 179
-230 236 -33 25 -113 77 -179 117 -146 88 -272 171 -304 199 -32 28 -59 26
-101 -9 -39 -34 -52 -37 -70 -15 -16 19 3 61 32 71 21 6 33 44 25 77 -5 17
-22 28 -74 45 -118 41 -152 60 -183 104 -39 53 -38 78 4 105 l33 21 -1 94 c-1
82 -3 93 -19 96 -21 4 -62 -30 -83 -70 -18 -35 -18 -67 1 -111 17 -41 13 -47
-31 -47 -28 0 -37 7 -68 54 -53 81 -106 86 -157 15 -18 -25 -20 -39 -15 -77
20 -149 20 -149 -1 -160 -23 -13 -63 9 -63 34 0 8 -10 14 -23 14 -17 0 -27
-12 -45 -50 -16 -35 -30 -52 -48 -56 -14 -4 -27 -4 -30 -1 -3 3 -5 72 -5 154
2 137 -20 390 -35 415 -4 5 -21 17 -38 25 -37 17 -52 26 -129 76 -61 40 -261
232 -293 282 -10 17 -42 62 -71 102 -29 40 -53 75 -53 79 0 4 -7 15 -16 25
-27 30 -37 165 -24 319 12 142 33 228 76 314 61 123 192 206 325 206 50 0 60
-3 78 -26 12 -15 21 -33 21 -40 0 -18 38 -28 55 -14 20 17 19 45 -6 117 -19
58 -19 63 -4 87 10 14 22 26 27 26 5 0 23 9 39 21 l30 21 -2 166 c-1 167 18
338 44 390 8 17 8 31 -1 55 -45 125 -51 230 -26 450 27 236 4 447 -49 461 -36
9 -175 4 -282 -11z m181 -391 c32 -21 26 -132 -8 -132 -35 0 -67 121 -35 133
18 8 31 8 43 -1z m-1762 -1188 c14 -36 5 -95 -19 -134 -62 -98 -101 7 -42 112
23 39 50 49 61 22z m680 -956 c23 -26 36 -52 36 -70 0 -32 -2 -33 -38 -14 -55
28 -105 107 -95 147 5 18 6 18 34 -1 15 -12 44 -39 63 -62z m-838 -34 c13 -26
15 -43 8 -61 -18 -52 -74 -57 -74 -8 0 24 35 105 45 105 2 0 12 -16 21 -36z
m1362 9 c4 -24 -32 -55 -54 -46 -20 7 -27 42 -13 59 18 22 63 14 67 -13z m350
-461 c4 -36 -20 -82 -42 -82 -23 0 -47 47 -40 77 9 34 22 44 54 41 20 -3 26
-9 28 -36z m-140 -174 c12 -16 -6 -66 -32 -87 -15 -13 -19 -13 -27 0 -11 17
-12 60 -1 75 6 10 27 21 43 23 4 1 11 -5 17 -11z m-748 -295 c0 -42 -4 -55
-22 -67 -32 -23 -57 -20 -69 8 -22 47 57 162 83 122 4 -6 8 -34 8 -63z m659
-127 c28 -34 -5 -97 -43 -83 -21 8 -21 60 0 81 19 20 28 20 43 2z m-361 -488
c8 -8 12 -45 12 -99 0 -83 -1 -89 -26 -108 -18 -14 -41 -21 -70 -21 -48 0 -51
4 -30 52 8 18 22 53 31 78 40 106 56 125 83 98z m214 -54 c-1 -50 -21 -88 -23
-43 -2 37 2 83 8 92 10 16 16 -3 15 -49z m363 23 c25 -19 14 -72 -22 -109 -21
-22 -36 -28 -69 -28 -72 0 -83 43 -27 107 37 42 84 54 118 30z m209 -473 c14
-37 -6 -84 -35 -84 -19 0 -31 44 -20 73 12 30 45 37 55 11z m1867 -74 c39 -22
14 -110 -32 -110 -10 0 -21 5 -25 11 -12 21 -6 70 12 90 20 22 20 22 45 9z
m-51 -252 c0 -35 -34 -70 -63 -66 -17 2 -23 11 -25 36 -3 25 3 39 29 64 30 31
32 31 45 13 8 -10 14 -31 14 -47z m-91 -145 c11 -44 17 -150 9 -158 -3 -3 -15
6 -27 21 -16 20 -21 41 -21 85 0 93 21 121 39 52z m-893 -9 c9 -34 -18 -64
-44 -48 -20 14 -17 44 6 62 23 18 31 15 38 -14z m263 -278 c18 -19 22 -33 19
-77 -2 -43 -7 -55 -21 -57 -42 -8 -75 57 -63 124 8 41 32 45 65 10z m1380 -82
c26 -33 28 -84 4 -84 -28 0 -53 31 -53 65 0 52 18 59 49 19z m-530 -335 c40
-29 68 -93 51 -114 -19 -23 -37 -18 -62 15 -28 38 -68 40 -114 5 -56 -42 -75
-32 -55 31 5 16 12 41 15 57 6 26 9 27 72 27 50 0 71 -5 93 -21z m-965 -170
c46 -36 28 -79 -29 -65 -26 7 -42 43 -31 71 8 21 29 19 60 -6z m943 -231 c36
-40 36 -57 0 -78 -39 -24 -41 -24 -61 -4 -30 29 -13 104 23 104 9 0 27 -10 38
-22z m713 -138 c15 -58 -31 -128 -66 -99 -19 15 -18 79 2 107 21 30 55 25 64
-8z m-1262 -204 c4 -50 -8 -63 -46 -47 -56 23 -46 95 11 89 29 -3 32 -6 35
-42z m680 30 c15 -8 35 -23 45 -34 36 -40 34 -228 -3 -274 -16 -20 -20 -21
-35 -8 -38 32 -55 96 -55 209 0 96 4 121 17 121 2 0 16 -6 31 -14z m456 -412
c29 -29 11 -104 -25 -104 -17 0 -32 48 -25 84 7 39 25 46 50 20z m-1936 -1423
c3 -25 -2 -33 -23 -43 -52 -23 -84 25 -45 67 30 32 64 20 68 -24z"/>
<path d="M7315 15300 c-15 -25 -45 -360 -52 -595 -4 -146 -1 -213 16 -355 11
-96 28 -200 37 -230 22 -76 28 -128 16 -143 -18 -21 -42 -157 -42 -234 0 -60
4 -77 20 -93 11 -11 27 -20 35 -20 38 0 134 -78 241 -193 15 -17 97 -157 113
-192 44 -101 55 -152 55 -250 0 -86 -3 -106 -23 -142 -31 -58 -84 -98 -164
-124 -38 -12 -67 -28 -67 -35 0 -20 60 -84 79 -84 9 0 36 18 59 40 63 61 94
56 194 -37 40 -37 53 -43 90 -43 31 0 49 6 69 26 31 30 27 30 204 15 77 -6
316 -11 530 -11 215 -1 449 -5 520 -9 82 -6 134 -5 142 1 18 14 43 109 43 160
-1 117 -51 289 -98 331 -17 15 -18 25 -9 85 14 104 2 255 -26 332 -14 36 -28
74 -32 85 -9 26 -18 47 -54 128 -17 38 -31 72 -31 77 0 5 -6 24 -14 42 -21 50
-46 170 -46 224 0 47 -2 50 -75 119 -73 68 -75 72 -75 117 0 46 -1 47 -35 54
-19 3 -39 12 -46 20 -6 8 -17 14 -24 14 -14 0 -35 30 -71 95 -39 74 -49 89
-108 170 -154 208 -401 388 -675 492 -101 38 -268 93 -284 93 -8 0 -37 6 -63
14 -64 19 -304 66 -335 66 -4 0 -10 -4 -14 -10z m663 -2101 c4 -38 -18 -50
-85 -47 -51 3 -58 6 -61 25 -4 30 40 53 98 50 40 -2 45 -5 48 -28z m622 -174
c11 -13 9 -19 -7 -38 -11 -12 -26 -32 -32 -44 -14 -27 -28 -29 -53 -6 -24 21
-24 78 0 92 26 16 78 13 92 -4z m124 5 c16 -6 26 -17 26 -30 0 -17 -6 -20 -50
-20 -39 0 -51 4 -60 20 -9 17 -7 22 12 30 30 12 42 12 72 0z"/>
<path d="M4773 15041 c-40 -7 -83 -34 -83 -52 0 -18 49 -33 130 -39 47 -4 91
-5 98 -2 15 5 8 67 -10 90 -11 13 -65 14 -135 3z"/>
<path d="M14587 15023 c-11 -11 -8 -48 5 -61 17 -17 44 -15 64 5 15 16 15 18
-10 40 -27 23 -47 29 -59 16z"/>
<path d="M5337 14913 c-13 -12 -7 -41 9 -47 52 -20 102 6 74 39 -12 15 -71 21
-83 8z"/>
<path d="M15512 14338 c-14 -14 -16 -64 -3 -72 17 -11 40 5 50 36 6 17 8 34 5
39 -8 13 -38 11 -52 -3z"/>
<path d="M3346 13954 c-18 -48 6 -114 41 -114 35 0 47 78 18 110 -22 24 -51
26 -59 4z"/>
<path d="M4420 13814 c-15 -38 -12 -58 9 -71 26 -17 61 9 61 46 0 52 -53 72
-70 25z"/>
<path d="M3818 13785 c-60 -17 -68 -22 -68 -46 0 -22 16 -24 92 -7 68 15 81
24 67 49 -11 21 -24 22 -91 4z"/>
<path d="M15696 13229 c-28 -33 -27 -49 4 -49 23 0 84 56 75 70 -13 20 -53 10
-79 -21z"/>
<path d="M7338 13183 c-25 -6 -21 -29 16 -98 28 -53 35 -60 60 -58 48 4 93 59
76 93 -9 16 -79 54 -115 63 -11 2 -28 2 -37 0z"/>
<path d="M3816 13128 c-13 -18 -13 -25 -1 -55 22 -53 81 -103 120 -103 21 0
55 32 55 51 0 34 -104 129 -141 129 -10 0 -25 -10 -33 -22z"/>
<path d="M7285 12919 c-10 -30 22 -61 59 -57 60 6 37 78 -24 78 -20 0 -31 -6
-35 -21z"/>
<path d="M16332 12878 c-5 -7 -13 -24 -17 -38 -10 -35 -45 -70 -70 -70 -11 0
-39 18 -60 41 -50 51 -84 69 -130 69 -32 0 -36 -3 -33 -22 2 -14 19 -30 48
-45 65 -34 80 -45 80 -64 0 -25 25 -41 53 -34 27 7 75 -12 142 -56 54 -36 83
-41 121 -23 46 22 50 41 11 64 -17 11 -37 20 -43 20 -7 0 -26 16 -43 35 -26
30 -31 44 -31 85 0 50 -9 61 -28 38z"/>
<path d="M10355 12732 c-39 -13 -58 -29 -52 -45 11 -30 137 11 137 45 0 9 -55
9 -85 0z"/>
<path d="M15489 12679 c-11 -11 -18 -26 -16 -32 6 -19 52 -41 70 -34 24 9 22
63 -2 77 -26 13 -28 13 -52 -11z"/>
<path d="M9467 12653 c-16 -15 -5 -44 23 -58 40 -20 73 -19 87 4 11 17 8 22
-21 40 -33 21 -76 27 -89 14z"/>
<path d="M6745 12621 c-5 -9 62 -71 78 -71 4 0 10 7 14 17 12 32 -74 83 -92
54z"/>
<path d="M7227 12613 c-3 -5 -10 -35 -17 -68 -17 -83 -36 -120 -103 -202 -60
-75 -65 -98 -19 -86 91 22 149 101 207 283 14 43 14 46 -8 62 -23 18 -53 23
-60 11z"/>
<path d="M7474 12540 c-50 -20 -82 -98 -52 -128 7 -7 29 -12 50 -12 35 0 39
-3 58 -44 11 -25 20 -49 20 -55 0 -16 61 -71 79 -71 26 0 92 65 85 83 -3 9
-24 19 -47 23 -57 9 -112 63 -103 102 20 89 20 91 -8 102 -32 12 -53 12 -82 0z"/>
<path d="M3162 12357 c-27 -29 -28 -63 -2 -77 14 -8 25 -7 40 2 21 13 37 69
25 87 -11 18 -40 12 -63 -12z"/>
<path d="M15907 12283 c-30 -29 38 -87 95 -81 43 4 48 31 13 64 -25 23 -92 34
-108 17z"/>
<path d="M7237 12163 c-3 -5 -8 -23 -12 -41 -5 -25 -3 -33 10 -38 23 -9 55 24
55 58 0 23 -4 28 -24 28 -14 0 -27 -3 -29 -7z"/>
<path d="M8483 12102 c-6 -4 -14 -19 -18 -34 -4 -15 -17 -38 -29 -51 -84 -90
-123 -159 -111 -196 9 -28 37 -26 87 5 33 21 50 25 85 21 28 -3 43 -1 44 7 6
53 -6 206 -17 229 -15 28 -22 31 -41 19z"/>
<path d="M10379 12088 c-2 -41 2 -63 16 -77 22 -23 45 -6 45 33 0 50 -9 66
-36 66 -18 0 -24 -6 -25 -22z"/>
<path d="M9467 12023 c-4 -3 -7 -27 -7 -52 0 -82 99 -189 156 -167 15 6 13 11
-14 39 -19 20 -36 52 -44 84 -19 73 -65 122 -91 96z"/>
<path d="M8193 11987 c-26 -38 -30 -85 -9 -93 20 -8 72 33 87 68 10 25 9 31
-7 43 -29 22 -47 18 -71 -18z"/>
<path d="M8836 11971 c-23 -25 -12 -69 21 -84 27 -12 43 1 43 38 0 62 -30 84
-64 46z"/>
<path d="M8013 11843 c-3 -9 -1 -36 5 -60 7 -24 12 -61 12 -82 0 -37 2 -39 48
-56 26 -9 70 -28 97 -40 121 -56 248 -83 283 -61 24 15 12 46 -29 73 -32 21
-51 26 -85 24 -76 -4 -105 12 -204 119 -91 100 -115 115 -127 83z"/>
<path d="M16083 11814 c-37 -19 -58 -41 -67 -71 -9 -27 -5 -27 84 -8 67 14 93
35 88 70 -4 26 -61 31 -105 9z"/>
<path d="M3561 11679 c-27 -25 -25 -63 4 -67 23 -3 66 52 58 74 -8 20 -36 17
-62 -7z"/>
<path d="M8928 11204 c-32 -29 -45 -34 -87 -34 -28 0 -52 -4 -55 -9 -7 -11 39
-61 56 -61 7 1 40 15 73 33 49 27 61 38 63 61 5 45 -10 48 -50 10z"/>
<path d="M9650 11164 c-20 -52 -10 -80 22 -63 25 13 38 49 26 72 -13 25 -37
21 -48 -9z"/>
<path d="M10355 11094 c-29 -31 -32 -49 -8 -58 22 -9 63 31 63 61 0 31 -25 30
-55 -3z"/>
<path d="M2470 11067 c-33 -17 -34 -30 -5 -66 21 -24 35 -31 61 -31 40 0 52
19 36 55 -17 36 -62 57 -92 42z"/>
<path d="M13096 10997 c-16 -12 -16 -14 4 -35 32 -34 100 -28 100 9 0 33 -70
51 -104 26z"/>
<path d="M3525 10994 c-65 -14 -98 -30 -106 -51 -11 -29 -4 -48 28 -68 23 -15
28 -15 65 0 52 21 79 52 75 90 -2 31 -18 38 -62 29z"/>
<path d="M5192 10988 c-18 -18 -15 -62 7 -89 16 -20 21 -22 35 -10 26 21 18
105 -9 109 -11 1 -26 -3 -33 -10z"/>
<path d="M9229 10890 c-64 -34 -72 -65 -32 -126 20 -32 77 -34 93 -3 19 35 25
130 9 140 -20 12 -29 11 -70 -11z"/>
<path d="M10366 10815 c-21 -22 -31 -64 -18 -77 6 -6 25 -8 46 -4 37 7 52 32
44 73 -4 24 -51 29 -72 8z"/>
<path d="M5549 10773 c-32 -19 -59 -72 -59 -113 0 -29 1 -30 53 -30 43 0 59 5
88 30 50 41 54 63 17 100 -33 34 -61 37 -99 13z"/>
<path d="M2213 10690 c-28 -44 -1 -82 43 -61 21 9 25 17 22 44 -2 26 -8 33
-28 35 -16 2 -29 -4 -37 -18z"/>
<path d="M3503 10702 c-19 -12 -33 -89 -18 -102 18 -15 57 31 58 71 2 34 -15
47 -40 31z"/>
<path d="M13409 10685 c-19 -13 -51 -32 -70 -42 -104 -58 -114 -68 -84 -79 26
-10 59 4 100 45 33 33 47 40 80 41 59 1 72 12 44 39 -27 25 -25 25 -70 -4z"/>
<path d="M9354 10646 c-10 -27 1 -89 18 -100 13 -8 22 -5 42 13 33 31 37 56
14 80 -21 24 -66 28 -74 7z"/>
<path d="M5144 10583 c-11 -44 55 -107 76 -72 11 17 -27 86 -51 92 -14 4 -21
-1 -25 -20z"/>
<path d="M9575 10577 c-40 -61 -59 -179 -33 -205 18 -18 46 -14 58 8 6 11 13
62 17 113 5 81 4 95 -11 100 -10 4 -21 -2 -31 -16z"/>
<path d="M4844 10498 c-38 -30 -44 -38 -44 -70 0 -33 9 -34 58 -9 71 37 102
81 66 95 -28 11 -51 6 -80 -16z"/>
<path d="M12644 10485 c-3 -7 -4 -34 -2 -59 2 -39 8 -50 30 -64 33 -20 64 -7
90 38 19 33 43 38 69 14 10 -9 23 -13 29 -9 15 9 -22 45 -46 45 -10 0 -25 6
-33 14 -24 20 -131 37 -137 21z"/>
<path d="M5800 10444 c-6 -14 -10 -33 -10 -43 0 -24 -37 -61 -61 -61 -30 0
-79 -38 -72 -55 3 -11 21 -15 57 -15 60 0 71 6 85 43 10 26 14 27 76 27 61 0
65 2 71 25 7 28 -14 68 -43 83 -10 5 -35 12 -56 15 -34 5 -39 3 -47 -19z"/>
<path d="M9766 10254 c-15 -47 -16 -61 -5 -80 7 -13 18 -24 25 -24 17 0 54 62
54 92 0 21 -36 68 -51 68 -3 0 -13 -25 -23 -56z"/>
<path d="M12525 10280 c-14 -23 7 -48 51 -59 47 -12 64 -9 64 12 0 26 -103 67
-115 47z"/>
<path d="M6230 10227 c0 -48 3 -55 25 -65 24 -11 107 -3 123 12 11 12 -22 59
-57 83 -19 13 -47 23 -62 23 -28 0 -29 -1 -29 -53z"/>
<path d="M13319 10243 c-1 -5 -1 -12 0 -17 1 -5 -3 -127 -10 -271 -11 -235
-11 -274 5 -391 18 -134 36 -211 63 -265 15 -29 14 -35 -5 -83 -48 -119 -49
-144 -22 -411 14 -137 9 -216 -23 -320 -43 -143 -57 -205 -57 -256 0 -65 -1
-66 -116 -143 -42 -28 -91 -68 -107 -88 l-30 -38 3 -742 c1 -409 5 -792 9
-853 l6 -110 115 1 c218 2 551 68 725 144 284 123 448 232 635 420 154 155
269 310 371 506 75 142 101 215 95 262 -6 42 5 117 23 157 5 11 22 49 39 85
52 116 60 143 78 259 16 108 16 125 -1 355 -19 256 -17 507 6 946 13 239 7
657 -11 748 -14 74 -13 73 -155 97 -169 29 -469 12 -703 -40 -70 -15 -75 -15
-130 4 -103 37 -255 51 -539 51 -145 0 -264 -3 -264 -7z m254 -333 c0 -30 -4
-69 -8 -87 -6 -28 -3 -36 35 -72 23 -22 40 -46 38 -53 -7 -20 -68 -58 -94 -58
-13 0 -26 6 -31 13 -23 37 -42 120 -43 184 0 63 3 75 26 103 20 23 34 30 53
28 25 -3 26 -6 24 -58z m49 -734 c22 -14 23 -47 2 -89 -28 -54 -65 -77 -124
-77 -59 0 -79 62 -40 125 36 59 106 76 162 41z m-182 -726 c16 -8 17 -14 7
-45 -11 -37 -44 -56 -58 -34 -10 17 -12 73 -2 82 9 10 31 9 53 -3z m-151 -947
c79 -79 91 -143 26 -143 -12 0 -39 -7 -58 -15 -39 -16 -39 -16 -57 38 -9 29
-9 53 0 107 7 39 16 70 22 70 5 0 35 -26 67 -57z"/>
<path d="M15844 10215 c-7 -30 10 -55 38 -55 23 0 32 22 24 55 -9 35 -53 35
-62 0z"/>
<path d="M5902 10153 c-16 -32 -22 -84 -12 -104 14 -26 66 -26 80 0 16 31 12
66 -11 95 -24 30 -45 33 -57 9z"/>
<path d="M3003 10138 c-19 -25 -21 -46 -7 -67 23 -33 73 -27 87 11 12 34 -59
84 -80 56z"/>
<path d="M4087 10129 c-40 -24 -78 -159 -44 -159 33 0 164 140 151 161 -7 12
-85 11 -107 -2z"/>
<path d="M3566 10103 c-4 -4 -21 -12 -39 -18 l-31 -10 -2 -103 c-2 -103 -2
-104 17 -84 34 37 91 159 87 188 -3 28 -18 41 -32 27z"/>
<path d="M6127 10062 c-25 -28 -19 -82 9 -82 25 0 64 23 69 41 16 48 -44 79
-78 41z"/>
<path d="M12958 9943 c-6 -83 4 -128 29 -131 32 -5 53 33 53 94 0 44 -4 54
-25 68 -41 27 -53 21 -57 -31z"/>
<path d="M5312 9953 c-15 -38 -38 -64 -94 -103 -53 -37 -65 -59 -48 -89 10
-20 12 -20 48 -4 39 18 98 60 146 104 31 29 30 48 -5 93 -26 33 -35 33 -47 -1z"/>
<path d="M6327 9913 c-14 -14 -7 -52 12 -58 36 -11 67 17 55 50 -6 15 -55 21
-67 8z"/>
<path d="M4451 9871 c-25 -16 -2 -81 36 -104 41 -23 53 -16 53 33 0 33 -5 41
-34 59 -38 24 -36 24 -55 12z"/>
<path d="M5778 9812 c-56 -37 -85 -90 -58 -107 16 -10 77 22 95 49 17 26 17
67 0 73 -5 1 -22 -5 -37 -15z"/>
<path d="M6011 9657 c-49 -103 -59 -133 -77 -235 -10 -62 -14 -119 -10 -158 6
-57 4 -64 -21 -93 -31 -35 -53 -39 -76 -13 -22 24 -21 38 1 70 35 51 52 95 52
137 0 49 -25 115 -43 115 -7 0 -67 7 -132 15 -155 19 -264 18 -345 -4 -72 -19
-130 -46 -130 -61 0 -19 -31 -10 -68 19 -56 44 -144 57 -272 42 -56 -7 -157
-11 -223 -10 l-121 2 -18 -29 c-10 -16 -18 -44 -18 -61 0 -31 42 -192 56 -215
4 -6 30 -8 70 -3 53 5 65 4 70 -9 6 -16 -30 -55 -51 -56 -16 0 -63 -47 -70
-71 -4 -11 -2 -40 3 -63 29 -112 34 -153 42 -301 12 -225 37 -386 71 -447 5
-10 9 -23 9 -30 0 -6 20 -44 45 -84 43 -69 45 -74 45 -151 0 -57 7 -100 26
-158 27 -83 37 -106 123 -288 28 -59 51 -113 51 -120 0 -7 10 -25 23 -40 l22
-28 70 14 c39 8 73 13 78 10 16 -10 5 -37 -35 -84 -38 -46 -40 -51 -28 -74 22
-41 167 -183 223 -219 29 -18 79 -41 112 -50 112 -33 105 -26 105 -110 l0 -75
78 -59 c197 -150 465 -299 657 -367 28 -9 59 -21 70 -25 26 -10 96 -33 170
-55 33 -9 80 -24 104 -31 25 -8 57 -14 72 -14 15 0 39 -4 54 -10 14 -5 63 -14
108 -20 45 -5 112 -14 150 -19 81 -11 110 -6 98 18 -11 22 -37 155 -57 290
-15 102 -17 180 -11 723 l7 608 -23 14 c-35 24 -142 53 -263 71 l-110 17 -132
127 c-92 88 -133 135 -138 156 -3 17 -17 62 -29 100 -13 39 -33 104 -45 145
-12 41 -25 86 -29 100 -9 27 -32 105 -54 185 -16 55 -39 143 -61 233 -8 31
-19 75 -25 97 -15 60 -24 142 -17 160 5 14 8 14 37 0 52 -27 60 -10 52 106
l-6 99 29 0 c36 0 63 16 49 29 -24 23 -108 62 -122 57 -13 -6 -13 -9 1 -31 20
-31 21 -55 0 -55 -8 0 -47 -32 -85 -71 -38 -39 -75 -69 -82 -66 -18 6 -13 53
14 125 19 52 21 68 12 93 -10 26 -8 37 18 85 31 59 35 87 20 127 -18 48 -38
40 -70 -26z m-486 -307 c16 -18 17 -22 1 -54 -9 -19 -16 -41 -16 -49 0 -8 -7
-31 -15 -51 -11 -26 -21 -36 -33 -34 -15 3 -17 15 -15 85 0 44 6 90 12 102 15
26 43 27 66 1z m-323 -179 c42 -16 84 -68 97 -122 12 -47 12 -52 -7 -71 -15
-15 -27 -18 -49 -14 -36 8 -173 122 -173 143 0 8 13 28 29 44 30 30 61 36 103
20z m828 -114 c0 -43 -5 -58 -22 -74 -51 -46 -88 -33 -88 30 0 53 36 97 80 97
29 0 30 -1 30 -53z m-486 -187 c28 -10 34 -37 15 -71 -13 -25 -50 -40 -66 -27
-18 15 -16 74 3 92 18 19 16 19 48 6z m-471 -37 c20 -23 22 -39 14 -94 -10
-60 -58 -119 -97 -119 -36 0 -45 13 -32 48 5 15 17 54 27 87 19 63 40 95 60
95 7 0 19 -8 28 -17z m929 -30 c29 -26 23 -81 -18 -159 -52 -100 -56 -118 -43
-210 13 -93 8 -129 -21 -144 -18 -10 -22 -7 -37 27 -8 21 -22 85 -30 143 -13
87 -13 119 -3 190 13 91 21 112 53 148 24 26 72 29 99 5z m-655 -85 c12 -13
29 -48 38 -78 10 -30 24 -67 31 -82 19 -37 17 -55 -7 -68 -44 -24 -59 -10 -90
80 -34 102 -38 170 -11 170 10 0 28 -10 39 -22z m268 -79 c6 -6 5 -21 -3 -42
-7 -18 -12 -49 -12 -69 0 -19 -3 -38 -6 -41 -15 -14 -43 15 -49 51 -3 20 -13
50 -21 65 -24 44 -12 61 39 53 23 -4 46 -11 52 -17z m-787 -101 c3 -28 -28
-55 -48 -43 -11 7 -13 58 -3 69 17 16 48 0 51 -26z m1432 -148 c0 -10 -9 -39
-20 -64 -14 -34 -25 -46 -41 -46 -26 0 -79 30 -79 45 0 28 110 101 133 88 4
-2 7 -13 7 -23z"/>
<path d="M3777 9694 c-4 -4 -7 -44 -7 -90 0 -74 3 -86 26 -113 28 -34 62 -43
48 -13 -4 9 -11 62 -14 117 -5 91 -7 100 -25 103 -12 2 -24 0 -28 -4z"/>
<path d="M2775 9644 c-36 -37 -47 -62 -35 -83 16 -30 42 -26 63 10 34 61 14
115 -28 73z"/>
<path d="M16477 9513 c-13 -12 -7 -54 8 -59 44 -17 84 23 53 54 -13 13 -50 16
-61 5z"/>
<path d="M10450 9480 c-13 -9 -9 -16 24 -45 33 -30 47 -35 88 -35 26 0 48 4
48 8 0 4 -15 23 -34 41 -36 35 -99 51 -126 31z"/>
<path d="M6720 9445 c0 -28 5 -38 24 -47 33 -14 56 -4 56 25 0 29 -29 57 -58
57 -18 0 -22 -6 -22 -35z"/>
<path d="M3908 9293 c-35 -9 -37 -105 -3 -157 17 -26 17 -26 47 -8 52 30 66
114 26 152 -21 20 -35 22 -70 13z"/>
<path d="M6400 9230 c-15 -27 -5 -40 30 -40 31 0 63 25 57 44 -2 6 -20 12 -40
14 -28 2 -38 -1 -47 -18z"/>
<path d="M10456 9184 c-21 -21 -20 -37 3 -58 42 -38 83 13 45 55 -21 23 -28
24 -48 3z"/>
<path d="M2317 9183 c-15 -14 -6 -61 16 -81 26 -25 75 -29 83 -8 6 15 -22 76
-40 88 -14 10 -50 10 -59 1z"/>
<path d="M7317 9133 c-4 -3 -7 -17 -7 -30 0 -29 -51 -83 -77 -83 -32 0 -63
-37 -63 -75 0 -29 5 -36 35 -51 63 -29 75 -89 31 -146 -14 -19 -26 -41 -26
-49 1 -31 128 -67 144 -41 3 4 -2 19 -9 33 -51 89 -50 78 -15 175 18 49 36
109 41 133 10 49 2 122 -15 133 -14 10 -31 10 -39 1z"/>
<path d="M2910 9113 c-42 -16 -40 -71 4 -117 34 -36 86 -50 101 -26 11 18 -25
109 -52 130 -27 21 -29 22 -53 13z"/>
<path d="M6509 8969 c-18 -35 4 -92 53 -133 48 -42 54 -43 68 -16 20 37 1 87
-48 130 -24 22 -49 40 -53 40 -5 0 -13 -10 -20 -21z"/>
<path d="M7653 8939 c-35 -10 -61 -43 -42 -54 12 -8 129 25 129 37 0 8 -34 28
-47 27 -4 0 -23 -5 -40 -10z"/>
<path d="M3798 8908 c-105 -57 -78 -66 155 -52 97 6 105 8 97 25 -19 35 -74
59 -136 59 -47 0 -71 -7 -116 -32z"/>
<path d="M12651 8918 c-34 -18 -36 -32 -8 -47 20 -11 29 -10 56 4 21 10 31 22
29 33 -4 21 -45 26 -77 10z"/>
<path d="M3013 8843 c-19 -7 -16 -72 2 -79 25 -10 62 5 68 27 9 35 -34 67 -70
52z"/>
<path d="M3567 8764 c-10 -11 -9 -52 3 -75 23 -41 107 -3 112 51 3 24 0 25
-52 28 -31 2 -59 0 -63 -4z"/>
<path d="M7571 8736 c-15 -18 -26 -88 -18 -110 5 -12 12 -13 37 -5 47 17 56
88 14 116 -18 12 -23 11 -33 -1z"/>
<path d="M4208 8729 c-25 -14 -22 -43 5 -74 l23 -27 34 19 c43 24 70 71 49 84
-19 12 -90 11 -111 -2z"/>
<path d="M7411 8518 c-10 -24 -35 -59 -55 -77 -49 -47 -48 -71 2 -71 20 1 51
9 69 18 17 9 52 28 77 40 49 25 56 43 30 80 -14 20 -73 52 -96 52 -5 0 -17
-19 -27 -42z"/>
<path d="M12860 8521 c-17 -32 -12 -68 20 -134 17 -35 30 -77 30 -93 0 -32 15
-54 37 -54 7 0 31 16 53 36 39 35 52 75 31 89 -10 5 -34 53 -66 133 -17 39
-21 42 -56 42 -28 0 -41 -5 -49 -19z"/>
<path d="M3238 8503 c-3 -4 -11 -33 -18 -64 -11 -50 -11 -60 3 -79 l16 -23 21
34 c26 43 25 132 -2 137 -9 2 -18 -1 -20 -5z"/>
<path d="M3785 8502 c-5 -4 -10 -35 -10 -69 0 -50 -4 -66 -22 -85 -21 -22 -22
-26 -7 -46 20 -28 69 -30 84 -3 11 21 12 127 1 176 -6 30 -27 42 -46 27z"/>
<path d="M13122 8467 c-19 -20 -52 -95 -52 -118 0 -5 13 -9 29 -9 35 0 75 46
84 94 10 58 -21 75 -61 33z"/>
<path d="M6942 8449 c-20 -7 -22 -15 -22 -72 0 -49 4 -68 18 -80 10 -10 21
-17 25 -17 16 0 37 64 37 113 0 59 -13 72 -58 56z"/>
<path d="M9875 8330 c-11 -4 -30 -19 -43 -33 -21 -22 -22 -27 -10 -46 20 -33
46 -36 74 -10 19 18 24 32 22 58 -3 37 -12 44 -43 31z"/>
<path d="M7111 8291 c-18 -11 -25 -89 -12 -123 6 -16 18 -28 28 -28 26 0 103
40 103 54 0 11 -33 45 -85 88 -13 11 -26 14 -34 9z"/>
<path d="M3903 8229 c-25 -50 -21 -66 21 -77 65 -18 104 51 54 98 -33 30 -52
25 -75 -21z"/>
<path d="M4403 8228 c-20 -21 -20 -26 -8 -55 8 -18 21 -33 30 -33 33 0 47 102
15 108 -9 1 -25 -8 -37 -20z"/>
<path d="M2339 8145 c-29 -16 -44 -51 -26 -62 33 -20 107 20 107 59 0 22 -42
24 -81 3z"/>
<path d="M7467 8133 c-16 -15 -5 -44 19 -54 31 -11 64 -3 64 16 0 27 -65 57
-83 38z"/>
<path d="M2747 8104 c-16 -16 -4 -21 58 -27 104 -10 108 -14 99 -107 -7 -79
-6 -80 20 -89 14 -6 34 -8 43 -4 30 10 83 53 83 67 0 8 -23 37 -51 65 -29 28
-57 61 -63 73 -10 21 -20 23 -97 26 -47 1 -88 0 -92 -4z"/>
<path d="M4392 7784 c-23 -16 -31 -67 -12 -79 15 -9 59 22 69 48 9 23 -3 47
-23 47 -6 0 -22 -7 -34 -16z"/>
<path d="M16013 7793 c-21 -8 -15 -32 13 -58 32 -30 74 -34 74 -7 -1 37 -55
78 -87 65z"/>
<path d="M2561 7716 c-11 -13 -10 -22 6 -53 17 -36 21 -38 69 -41 42 -2 57 1
78 20 23 20 25 25 14 40 -7 10 -35 22 -63 28 -27 5 -59 12 -71 15 -12 4 -25 0
-33 -9z"/>
<path d="M9772 7669 c-53 -20 4 -90 61 -75 31 7 36 35 10 58 -26 22 -45 26
-71 17z"/>
<path d="M3917 7570 c-35 -11 -68 -49 -64 -75 5 -46 187 -2 187 45 0 10 -8 21
-17 24 -43 12 -80 14 -106 6z"/>
<path d="M3200 7542 c0 -16 9 -37 20 -47 19 -17 20 -17 32 10 14 32 2 58 -31
63 -17 3 -21 -2 -21 -26z"/>
<path d="M3517 7543 c-14 -14 -6 -53 15 -73 16 -15 33 -20 58 -18 32 3 35 6
38 40 3 39 2 40 -69 52 -19 4 -38 3 -42 -1z"/>
<path d="M4090 7352 c-45 -55 -38 -91 15 -78 29 7 59 59 50 86 -11 33 -33 31
-65 -8z"/>
<path d="M2790 6981 c0 -36 18 -51 68 -58 27 -4 42 -1 51 10 26 32 -29 77 -95
77 -20 0 -24 -5 -24 -29z"/>
<path d="M3046 6877 c-17 -13 -17 -15 9 -45 22 -26 34 -32 66 -32 32 0 41 4
51 25 9 21 9 28 -3 39 -21 21 -101 29 -123 13z"/>
<path d="M3918 6854 c-64 -34 -98 -76 -98 -124 0 -61 37 -70 99 -23 46 35 110
150 93 168 -11 11 -49 3 -94 -21z"/>
<path d="M2600 6826 c0 -34 40 -72 115 -106 36 -16 68 -30 70 -30 14 0 2 49
-18 72 -36 42 -108 88 -139 88 -23 0 -28 -4 -28 -24z"/>
<path d="M3308 6772 c-51 -31 -71 -111 -22 -83 11 6 44 21 75 35 52 23 76 46
62 60 -12 12 -89 4 -115 -12z"/>
<path d="M9621 6686 c-7 -8 -11 -38 -9 -72 3 -51 6 -60 29 -73 30 -17 94 -8
103 14 7 20 -21 82 -53 118 -27 30 -52 35 -70 13z"/>
<path d="M4440 6640 c-40 -40 -10 -92 59 -106 45 -9 65 5 69 48 4 41 -20 66
-71 75 -27 4 -39 1 -57 -17z"/>
<path d="M3965 6630 c-8 -25 1 -54 33 -105 14 -22 28 -53 32 -70 4 -20 12 -28
21 -25 8 2 49 6 92 8 66 3 78 6 75 20 -3 16 -34 40 -97 74 -27 15 -49 48 -65
101 -8 26 -82 24 -91 -3z"/>
<path d="M5422 6620 c-35 -47 -29 -82 17 -108 51 -29 66 -14 58 59 -10 83 -37
100 -75 49z"/>
<path d="M8917 6613 c-16 -29 -17 -67 -1 -84 21 -23 45 -24 83 -4 34 17 59 74
39 87 -16 10 -115 11 -121 1z"/>
<path d="M11058 6569 c-28 -11 -62 -68 -56 -97 9 -46 92 -12 124 51 15 28 15
31 -2 44 -20 15 -29 15 -66 2z"/>
<path d="M5307 6492 c-18 -20 -23 -67 -8 -77 15 -9 61 38 63 65 4 32 -31 39
-55 12z"/>
<path d="M3146 6394 c-9 -23 23 -66 48 -62 27 4 32 34 10 59 -21 23 -50 25
-58 3z"/>
<path d="M4861 6183 c-32 -39 -28 -53 16 -53 25 0 46 31 41 62 -5 34 -24 32
-57 -9z"/>
<path d="M2790 6029 c-15 -35 -3 -84 20 -84 20 0 34 63 21 92 -14 31 -26 29
-41 -8z"/>
<path d="M9757 6033 c-9 -9 -9 -65 1 -80 4 -6 16 -13 27 -15 17 -2 21 3 23 35
4 50 -26 86 -51 60z"/>
<path d="M5302 6008 c-30 -30 6 -114 46 -106 13 3 17 15 17 58 0 51 -2 55 -25
58 -14 2 -31 -3 -38 -10z"/>
<path d="M3407 6003 c-4 -3 -7 -30 -7 -60 0 -60 21 -103 51 -103 28 0 40 41
32 110 -6 59 -6 60 -38 60 -17 0 -35 -3 -38 -7z"/>
<path d="M5581 5884 c-35 -15 -63 -43 -55 -56 10 -16 101 -8 124 10 19 16 21
22 11 40 -14 25 -33 27 -80 6z"/>
<path d="M4229 5811 c-20 -16 -22 -23 -13 -38 29 -47 124 -38 124 12 0 44 -70
60 -111 26z"/>
<path d="M13359 5791 c-34 -34 -40 -81 -10 -81 42 0 110 40 129 77 14 25 1 33
-55 33 -25 0 -43 -8 -64 -29z"/>
<path d="M15475 5531 c-9 -29 4 -49 41 -61 66 -22 93 39 29 66 -46 19 -62 18
-70 -5z"/>
<path d="M4308 5532 c-11 -2 -18 -13 -18 -28 0 -62 72 -104 86 -49 14 56 -15
88 -68 77z"/>
<path d="M15135 5450 c-13 -21 4 -57 32 -69 16 -6 44 -12 63 -13 31 -3 35 0
35 21 0 14 -10 31 -25 42 -32 23 -95 35 -105 19z"/>
<path d="M7440 5302 c0 -23 22 -43 78 -72 28 -15 47 -19 53 -13 17 17 -1 40
-49 63 -26 12 -55 26 -64 31 -14 7 -18 5 -18 -9z"/>
<path d="M4064 5218 c-51 -57 -94 -136 -94 -174 0 -77 51 -105 118 -64 39 24
45 70 11 94 l-21 14 28 37 c31 41 38 100 14 116 -22 13 -24 12 -56 -23z"/>
<path d="M14962 5148 c3 -67 5 -73 23 -70 27 5 35 20 35 69 0 43 -19 73 -46
73 -12 0 -14 -14 -12 -72z"/>
<path d="M12613 4914 c-7 -19 34 -64 59 -64 22 0 23 12 3 50 -17 33 -52 40
-62 14z"/>
<path d="M5276 4724 c-9 -32 17 -74 44 -74 25 0 26 29 5 70 -19 37 -41 38 -49
4z"/>
<path d="M15174 4589 c-30 -33 -8 -53 60 -57 67 -4 82 14 46 54 -30 30 -79 32
-106 3z"/>
<path d="M7811 4349 c-35 -34 -44 -95 -16 -105 46 -18 95 34 95 100 0 31 -3
36 -24 36 -14 0 -38 -13 -55 -31z"/>
</g>
</svg>
